<?xml version="1.0" standalone="no"?>
<!DOCTYPE svg PUBLIC "-//W3C//DTD SVG 20010904//EN"
 "http://www.w3.org/TR/2001/REC-SVG-20010904/DTD/svg10.dtd">
<svg version="1.0" xmlns="http://www.w3.org/2000/svg"
 width="400.000000pt" height="400.000000pt" viewBox="0 0 400.000000 400.000000"
 preserveAspectRatio="xMidYMid meet">

<g transform="translate(0.000000,400.000000) scale(0.100000,-0.100000)"
fill="#000000" stroke="none">
<path d="M1855 3619 l-41 -9 -12 -88 c-22 -163 -107 -287 -242 -351 -30 -14
-57 -27 -59 -28 -3 -2 8 -17 24 -33 46 -48 74 -47 232 4 77 25 149 46 160 46
28 0 70 -35 77 -65 10 -38 -6 -60 -138 -190 -99 -97 -129 -133 -157 -190 -32
-66 -34 -75 -34 -180 0 -149 22 -196 148 -315 230 -217 244 -233 262 -295 51
-174 -76 -337 -239 -307 -42 8 -62 32 -26 32 58 0 99 47 100 113 0 40 -5 53
-29 78 -24 24 -38 29 -76 29 -57 0 -77 -10 -104 -54 -37 -59 -24 -143 33 -204
69 -77 240 -87 379 -23 91 41 150 98 194 189 37 74 38 79 38 186 0 130 -17
192 -70 254 -41 47 -42 52 -15 52 86 0 239 158 240 247 0 22 -1 23 -177 25
l-178 3 78 24 78 24 -3 406 c-3 403 -3 406 -27 459 -60 134 -236 201 -416 161z
m19 -308 c23 -25 6 -61 -29 -61 -35 0 -52 36 -29 61 9 10 22 19 29 19 7 0 20
-9 29 -19z"/>
<path d="M520 1197 l25 -13 3 -214 c3 -234 1 -256 -26 -263 -9 -3 25 -5 77 -6
84 -1 93 1 75 13 -16 12 -20 29 -22 104 l-4 90 107 35 c85 29 107 33 111 22 3
-8 4 -64 2 -125 -3 -97 -6 -114 -22 -126 -18 -12 -9 -14 75 -13 52 1 86 3 77
6 -27 7 -29 29 -26 263 l3 214 25 13 c22 11 11 13 -80 12 -70 0 -98 -3 -83 -9
17 -7 23 -20 28 -62 4 -29 5 -71 3 -92 l-3 -39 -100 -34 c-54 -18 -103 -33
-107 -33 -10 0 -11 174 -2 220 4 19 15 35 28 40 14 6 -16 9 -84 9 -91 1 -102
-1 -80 -12z"/>
<path d="M1466 1190 c-50 -16 -66 -32 -47 -45 17 -10 15 -432 -1 -438 -7 -3
14 -6 47 -6 l60 -1 -3 167 c-1 93 -3 207 -5 254 l-2 86 -49 -17z"/>
<path d="M1632 1192 c-43 -12 -52 -18 -45 -31 4 -9 9 -110 11 -224 l3 -208 36
-16 c56 -23 169 -15 211 15 90 65 97 223 12 267 -39 20 -78 19 -125 -5 -22
-11 -40 -20 -42 -20 -1 0 -4 53 -5 118 l-3 119 -53 -15z m139 -242 c72 -39 61
-240 -13 -240 -53 1 -68 35 -68 154 l0 96 31 0 c17 0 39 -5 50 -10z"/>
<path d="M2615 1048 c-62 -27 -61 -26 -47 -40 8 -8 12 -56 12 -143 0 -113 2
-134 18 -147 40 -35 111 -27 152 17 l24 25 -31 -6 c-17 -3 -40 -1 -52 5 -19
11 -21 20 -21 116 l0 104 47 3 c66 4 70 28 4 28 -48 0 -50 1 -53 29 l-3 30
-50 -21z"/>
<path d="M1125 996 c-42 -18 -83 -69 -91 -112 -30 -162 167 -255 287 -136 67
68 57 176 -22 232 -40 29 -129 37 -174 16z m116 -28 c17 -28 20 -47 17 -131
-3 -91 -5 -100 -27 -118 -32 -26 -51 -21 -75 21 -28 47 -30 192 -3 233 25 38
62 36 88 -5z"/>
<path d="M2048 990 c-102 -54 -114 -225 -19 -274 56 -30 122 -23 166 15 40 35
40 44 2 30 -60 -23 -128 25 -142 101 l-7 36 91 7 c86 7 91 8 91 30 0 14 -13
34 -31 49 -38 32 -97 34 -151 6z m89 2 c6 -4 15 -20 19 -36 8 -34 -6 -46 -58
-46 -45 0 -51 21 -17 64 21 27 35 31 56 18z"/>
<path d="M2332 987 c-42 -16 -51 -23 -45 -36 4 -9 9 -65 11 -125 2 -82 0 -111
-10 -117 -8 -5 16 -8 57 -8 39 0 64 3 58 6 -9 3 -13 36 -13 114 0 92 3 111 16
116 9 3 25 1 35 -5 54 -34 107 19 63 62 -23 23 -42 20 -76 -14 -16 -16 -31
-30 -33 -30 -2 0 -5 13 -7 29 l-3 28 -53 -20z"/>
<path d="M2910 999 c-122 -49 -135 -216 -22 -282 42 -25 125 -26 169 -4 116
60 116 225 0 278 -46 20 -107 24 -147 8z m112 -39 c22 -43 24 -166 4 -214 -31
-74 -98 -44 -112 50 -9 62 1 150 21 180 24 37 65 29 87 -16z"/>
<path d="M3238 986 c-49 -18 -55 -23 -47 -39 6 -10 9 -68 7 -132 l-3 -115 55
0 55 0 -2 151 c-1 84 -4 153 -5 154 -2 2 -29 -7 -60 -19z"/>
<path d="M3361 999 c-49 -19 -55 -31 -22 -45 22 -9 33 -23 40 -51 15 -52 14
-176 -1 -191 -9 -9 1 -12 48 -12 l59 0 -6 127 c-6 142 -11 160 -46 174 -29 11
-41 11 -72 -2z"/>
<path d="M1835 522 c-30 -6 -45 -31 -45 -78 0 -33 5 -46 22 -58 49 -34 102
-11 113 50 10 56 -33 97 -90 86z m59 -34 c22 -31 20 -64 -4 -88 -24 -24 -43
-25 -64 -4 -25 25 -30 61 -12 89 21 32 59 33 80 3z"/>
<path d="M700 444 l0 -77 52 5 c58 6 78 24 78 73 0 53 -24 75 -81 75 l-49 0 0
-76z m94 50 c19 -18 21 -77 4 -92 -7 -5 -26 -12 -43 -14 l-30 -3 -3 63 -3 62
30 0 c16 0 37 -7 45 -16z"/>
<path d="M880 445 l0 -75 55 0 c30 0 55 5 55 10 0 6 -20 10 -45 10 -41 0 -45
2 -45 25 0 22 4 25 37 25 20 0 33 3 29 7 -4 4 -19 7 -34 8 -22 0 -28 5 -30 27
-3 25 -1 27 45 31 l48 3 -57 2 -58 2 0 -75z"/>
<path d="M1030 445 c0 -43 4 -75 10 -75 6 0 10 16 10 35 0 33 2 35 35 35 19 0
35 3 35 8 0 4 -15 7 -32 7 -28 0 -33 4 -36 27 -3 25 -1 27 45 31 l48 3 -57 2
-58 2 0 -75z"/>
<path d="M1180 445 c0 -43 4 -75 10 -75 6 0 10 32 10 75 0 43 -4 75 -10 75 -6
0 -10 -32 -10 -75z"/>
<path d="M1250 446 c0 -44 4 -76 10 -76 6 0 10 29 10 68 l0 67 41 -67 c55 -91
69 -89 69 7 0 90 -18 101 -22 13 l-3 -63 -35 60 c-20 33 -44 61 -53 63 -15 3
-17 -6 -17 -72z"/>
<path d="M1430 445 l0 -75 55 0 c30 0 55 5 55 10 0 6 -3 9 -7 9 -5 -1 -25 -1
-45 0 -34 1 -38 4 -38 26 0 22 4 25 35 25 19 0 35 3 35 8 0 4 -15 7 -32 7 -28
0 -33 4 -36 27 -3 25 -1 27 45 31 l48 3 -57 2 -58 2 0 -75z"/>
<path d="M1664 476 c14 -25 26 -58 26 -75 0 -17 5 -31 10 -31 6 0 10 14 10 31
0 17 12 50 26 75 14 24 21 44 15 44 -6 0 -19 -16 -28 -35 -9 -19 -20 -35 -23
-35 -3 0 -14 16 -23 35 -9 19 -22 35 -28 35 -6 0 1 -20 15 -44z"/>
<path d="M1970 467 c0 -83 41 -119 101 -87 16 9 19 21 17 78 l-2 67 -3 -56
c-5 -70 -29 -99 -68 -81 -23 10 -25 17 -25 72 0 33 -4 60 -10 60 -5 0 -10 -24
-10 -53z"/>
<path d="M2150 445 c0 -41 4 -75 9 -75 4 0 6 10 4 23 -9 55 35 60 65 7 9 -16
23 -30 30 -30 9 0 7 9 -8 30 -19 27 -20 31 -6 46 37 37 12 74 -51 74 l-43 0 0
-75z m85 35 c0 -22 -4 -25 -35 -25 -35 0 -36 2 -31 46 0 5 16 9 34 7 27 -2 32
-7 32 -28z"/>
<path d="M2390 445 c0 -43 4 -75 10 -75 6 0 10 16 10 35 0 34 2 35 38 36 l37
2 -35 6 c-29 5 -36 11 -38 33 -3 25 -1 27 45 31 l48 3 -57 2 -58 2 0 -75z"/>
<path d="M2541 459 c-1 -74 8 -89 54 -89 47 0 65 26 65 93 0 31 -4 57 -10 57
-6 0 -10 -27 -10 -60 0 -55 -2 -61 -25 -72 -37 -17 -58 9 -66 80 l-6 57 -2
-66z"/>
<path d="M2718 513 l32 -4 0 -70 c0 -39 4 -69 10 -69 6 0 10 30 10 69 0 68 1
70 28 74 15 2 -4 4 -43 4 -38 0 -55 -2 -37 -4z"/>
<path d="M2860 461 c0 -66 15 -91 56 -91 53 0 64 15 64 85 0 37 -4 65 -10 65
-6 0 -10 -26 -10 -59 0 -70 -16 -91 -55 -73 -23 10 -25 17 -25 72 0 33 -4 60
-10 60 -6 0 -10 -26 -10 -59z"/>
<path d="M3041 443 c1 -55 4 -67 8 -43 8 48 34 50 63 6 13 -20 26 -36 31 -36
11 0 9 8 -9 36 -15 23 -15 26 0 43 35 39 12 71 -51 71 l-43 0 1 -77z m84 37
c0 -22 -5 -25 -37 -28 -36 -3 -38 -2 -38 28 0 30 2 31 38 28 32 -3 37 -6 37
-28z"/>
<path d="M3200 445 l0 -75 55 0 c30 0 55 5 55 10 0 6 -20 10 -45 10 -41 0 -45
2 -45 25 0 22 4 25 37 25 42 0 41 7 -2 13 -24 3 -31 9 -33 30 -3 24 0 26 45
30 l48 3 -57 2 -58 2 0 -75z"/>
</g>
</svg>
